<svg id="Capa_9" data-name="Capa 9" xmlns="http://www.w3.org/2000/svg" viewBox="0 0 212.78 156.15"><defs><style>.cls-1{fill:#fff;}</style></defs><path class="cls-1" d="M903.79,615.61v49.28a54.8,54.8,0,0,1-35.27,49.81V565.79A54.8,54.8,0,0,1,903.79,615.61Z" transform="translate(-779.79 -562.12)"/><path class="cls-1" d="M868.52,661.92V714.7a54.62,54.62,0,0,1-19.5,3.57H834.58a54.69,54.69,0,0,1-19.52-3.58V661.92a27.21,27.21,0,0,0,53.46,0Z" transform="translate(-779.79 -562.12)"/><path class="cls-1" d="M815.06,661.92v52.77a54.81,54.81,0,0,1-35.27-51.21V617a54.82,54.82,0,0,1,35.27-51.22Z" transform="translate(-779.79 -562.12)"/><path class="cls-1" d="M815.06,565.08v.72A54.82,54.82,0,0,0,779.79,617V565.08a2.73,2.73,0,0,1,2.74-2.74h29.79A2.74,2.74,0,0,1,815.06,565.08Z" transform="translate(-779.79 -562.12)"/><path class="cls-1" d="M903.79,661.92V695.7a2.58,2.58,0,0,1-2.74,2.38H880.83a54.52,54.52,0,0,1-12.31-34.6V617a54.82,54.82,0,0,1,35.27-51.22Z" transform="translate(-779.79 -562.12)"/><path class="cls-1" d="M868.52,617v-52.3a2.58,2.58,0,0,1,2.74-2.38h29.79a2.58,2.58,0,0,1,2.74,2.38v1.08A54.82,54.82,0,0,0,868.52,617Z" transform="translate(-779.79 -562.12)"/><path class="cls-1" d="M868.52,695.7V663.48a54.52,54.52,0,0,0,12.31,34.6h-9.57A2.58,2.58,0,0,1,868.52,695.7Z" transform="translate(-779.79 -562.12)"/><path class="cls-1" d="M903.79,661.92a27.21,27.21,0,0,0,53.46,0V714.7a54.62,54.62,0,0,1-19.5,3.57H923.31a54.66,54.66,0,0,1-42.48-20.19h20.22a2.58,2.58,0,0,0,2.74-2.38Z" transform="translate(-779.79 -562.12)"/><path class="cls-1" d="M992.52,615.61v49.28a54.8,54.8,0,0,1-35.27,49.81V565.79A54.8,54.8,0,0,1,992.52,615.61Z" transform="translate(-779.79 -562.12)"/><path class="cls-1" d="M930.52,566.07a4,4,0,0,1,4-4,81.26,81.26,0,0,1,21,3.07,57,57,0,0,1,15.74,7.5c18.16,12.88,21,36.38,21.15,38.59.28,5.25.07,21.92.12,21.92h0l-31.36,0a3.93,3.93,0,0,1-3.94-3.93c0-1,0-2.21,0-3.46,0-4.58.1-5.39,0-6.12,0,0,0-.27,0-.53A27.08,27.08,0,0,0,934,596.72a4,4,0,0,1-3.45-3.91Z" transform="translate(-779.79 -562.12)"/></svg>